0
SECTION
2
HEADER
9
$PDMODE
70
33
9
$PDSIZE
40
1.000
9
$EXTMIN
10
-66.671
20
-62.934
30
-1.000
9
$EXTMAX
10
733.381
20
692.274
30
1.000
9
$LIMMIN
10
-66.671
20
-62.934
9
$LIMMAX
10
733.381
20
692.274
0
ENDSEC
0
SECTION
2
TABLES
0
TABLE
2
LAYER
70
7
0
LAYER
2
SCRIBE
70
0
62
3
6
CONTINUOUS
0
LAYER
2
TEXT
70
0
62
7
6
CONTINUOUS
0
LAYER
2
CUT
70
0
62
7
6
CONTINUOUS
0
LAYER
2
22
70
0
62
7
6
CONTINUOUS
0
ENDTAB
0
TABLE
2
VPORT
70
4
0
VPORT
2
*ACTIVE
70
0
10
0.000000
20
0.000000
11
1.000000
21
1.000000
12
333.355000
22
314.670000
13
0.000000
23
0.000000
14
1.000000
24
1.000000
15
1.000000
25
1.000000
16
0.000000
26
0.000000
36
1.000000
17
0.000000
27
0.000000
37
0.000000
40
666.710000
41
1.500000
42
50.000000
43
0.000000
44
0.000000
50
0.000000
51
0.000000
71
0
72
100
73
1
74
1
75
0
76
0
77
0
78
0
0
ENDTAB
0
ENDSEC
0
SECTION
2
ENTITIES
0
TEXT
8
SCRIBE
62
3
10
30.000
20
30.000
30
0.000
40
10.000
1
227
0
TEXT
8
TEXT
62
7
10
30.000
20
15.000
30
0.000
40
10.000
1
1+PL8+C255
0
POLYLINE
8
CUT
6
CONTINUOUS
62
7
66
1
10
0.000
20
0.000
30
0.000
70
1
0
VERTEX
8
CUT
10
0.000
20
205.110
30
0.000
42
0.00000000
0
VERTEX
8
CUT
10
0.000
20
420.430
30
0.000
42
0.00000000
0
VERTEX
8
CUT
10
178.840
20
629.330
30
0.000
42
0.00000000
0
VERTEX
8
CUT
10
487.870
20
629.340
30
0.000
42
0.00000000
0
VERTEX
8
CUT
10
666.710
20
420.430
30
0.000
42
0.00000000
0
VERTEX
8
CUT
10
666.710
20
205.110
30
0.000
42
0.00000000
0
VERTEX
8
CUT
10
491.120
20
0.000
30
0.000
42
0.00000000
0
VERTEX
8
CUT
10
175.590
20
0.000
30
0.000
42
0.00000000
0
SEQEND
0
POLYLINE
8
22
6
CONTINUOUS
62
7
66
1
10
0.000
20
0.000
30
0.000
70
1
0
VERTEX
8
22
10
72.660
20
193.240
30
0.000
42
1.00000000
0
VERTEX
8
22
10
72.660
20
170.240
30
0.000
42
1.00000000
0
SEQEND
0
LINE
8
22
6
CONTINUOUS
62
7
39
1.000
10
61.160
20
181.740
30
0.000
11
84.160
21
181.740
31
0.000
0
LINE
8
22
6
CONTINUOUS
62
7
39
1.000
10
72.660
20
170.240
30
0.000
11
72.660
21
193.240
31
0.000
0
POLYLINE
8
22
6
CONTINUOUS
62
7
66
1
10
0.000
20
0.000
30
0.000
70
1
0
VERTEX
8
22
10
72.660
20
455.290
30
0.000
42
1.00000000
0
VERTEX
8
22
10
72.660
20
432.290
30
0.000
42
1.00000000
0
SEQEND
0
LINE
8
22
6
CONTINUOUS
62
7
39
1.000
10
61.160
20
443.790
30
0.000
11
84.160
21
443.790
31
0.000
0
LINE
8
22
6
CONTINUOUS
62
7
39
1.000
10
72.660
20
432.290
30
0.000
11
72.660
21
455.290
31
0.000
0
POLYLINE
8
22
6
CONTINUOUS
62
7
66
1
10
0.000
20
0.000
30
0.000
70
1
0
VERTEX
8
22
10
163.700
20
86.890
30
0.000
42
1.00000000
0
VERTEX
8
22
10
163.700
20
63.890
30
0.000
42
1.00000000
0
SEQEND
0
LINE
8
22
6
CONTINUOUS
62
7
39
1.000
10
152.200
20
75.390
30
0.000
11
175.200
21
75.390
31
0.000
0
LINE
8
22
6
CONTINUOUS
62
7
39
1.000
10
163.700
20
63.890
30
0.000
11
163.700
21
86.890
31
0.000
0
POLYLINE
8
22
6
CONTINUOUS
62
7
66
1
10
0.000
20
0.000
30
0.000
70
1
0
VERTEX
8
22
10
163.700
20
561.640
30
0.000
42
1.00000000
0
VERTEX
8
22
10
163.700
20
538.640
30
0.000
42
1.00000000
0
SEQEND
0
LINE
8
22
6
CONTINUOUS
62
7
39
1.000
10
152.200
20
550.140
30
0.000
11
175.200
21
550.140
31
0.000
0
LINE
8
22
6
CONTINUOUS
62
7
39
1.000
10
163.700
20
538.640
30
0.000
11
163.700
21
561.640
31
0.000
0
POLYLINE
8
22
6
CONTINUOUS
62
7
66
1
10
0.000
20
0.000
30
0.000
70
1
0
VERTEX
8
22
10
503.010
20
86.890
30
0.000
42
1.00000000
0
VERTEX
8
22
10
503.010
20
63.890
30
0.000
42
1.00000000
0
SEQEND
0
LINE
8
22
6
CONTINUOUS
62
7
39
1.000
10
491.510
20
75.390
30
0.000
11
514.510
21
75.390
31
0.000
0
LINE
8
22
6
CONTINUOUS
62
7
39
1.000
10
503.010
20
63.890
30
0.000
11
503.010
21
86.890
31
0.000
0
POLYLINE
8
22
6
CONTINUOUS
62
7
66
1
10
0.000
20
0.000
30
0.000
70
1
0
VERTEX
8
22
10
503.000
20
561.650
30
0.000
42
1.00000000
0
VERTEX
8
22
10
503.000
20
538.650
30
0.000
42
1.00000000
0
SEQEND
0
LINE
8
22
6
CONTINUOUS
62
7
39
1.000
10
491.500
20
550.150
30
0.000
11
514.500
21
550.150
31
0.000
0
LINE
8
22
6
CONTINUOUS
62
7
39
1.000
10
503.000
20
538.650
30
0.000
11
503.000
21
561.650
31
0.000
0
POLYLINE
8
22
6
CONTINUOUS
62
7
66
1
10
0.000
20
0.000
30
0.000
70
1
0
VERTEX
8
22
10
594.050
20
193.240
30
0.000
42
1.00000000
0
VERTEX
8
22
10
594.050
20
170.240
30
0.000
42
1.00000000
0
SEQEND
0
LINE
8
22
6
CONTINUOUS
62
7
39
1.000
10
582.550
20
181.740
30
0.000
11
605.550
21
181.740
31
0.000
0
LINE
8
22
6
CONTINUOUS
62
7
39
1.000
10
594.050
20
170.240
30
0.000
11
594.050
21
193.240
31
0.000
0
POLYLINE
8
22
6
CONTINUOUS
62
7
66
1
10
0.000
20
0.000
30
0.000
70
1
0
VERTEX
8
22
10
594.050
20
455.290
30
0.000
42
1.00000000
0
VERTEX
8
22
10
594.050
20
432.290
30
0.000
42
1.00000000
0
SEQEND
0
LINE
8
22
6
CONTINUOUS
62
7
39
1.000
10
582.550
20
443.790
30
0.000
11
605.550
21
443.790
31
0.000
0
LINE
8
22
6
CONTINUOUS
62
7
39
1.000
10
594.050
20
432.290
30
0.000
11
594.050
21
455.290
31
0.000
0
ENDSEC
0
EOF
