0
SECTION
2
HEADER
9
$PDMODE
70
33
9
$PDSIZE
40
1.000
9
$EXTMIN
10
-66.565
20
-62.655
30
-1.000
9
$EXTMAX
10
732.215
20
689.205
30
1.000
9
$LIMMIN
10
-66.565
20
-62.655
9
$LIMMAX
10
732.215
20
689.205
0
ENDSEC
0
SECTION
2
TABLES
0
TABLE
2
LAYER
70
7
0
LAYER
2
SCRIBE
70
0
62
3
6
CONTINUOUS
0
LAYER
2
TEXT
70
0
62
7
6
CONTINUOUS
0
LAYER
2
CUT
70
0
62
7
6
CONTINUOUS
0
LAYER
2
22
70
0
62
7
6
CONTINUOUS
0
ENDTAB
0
TABLE
2
VPORT
70
4
0
VPORT
2
*ACTIVE
70
0
10
0.000000
20
0.000000
11
1.000000
21
1.000000
12
332.825000
22
313.275000
13
0.000000
23
0.000000
14
1.000000
24
1.000000
15
1.000000
25
1.000000
16
0.000000
26
0.000000
36
1.000000
17
0.000000
27
0.000000
37
0.000000
40
665.650000
41
1.500000
42
50.000000
43
0.000000
44
0.000000
50
0.000000
51
0.000000
71
0
72
100
73
1
74
1
75
0
76
0
77
0
78
0
0
ENDTAB
0
ENDSEC
0
SECTION
2
ENTITIES
0
TEXT
8
SCRIBE
62
3
10
30.000
20
30.000
30
0.000
40
10.000
1
236
0
TEXT
8
TEXT
62
7
10
30.000
20
15.000
30
0.000
40
10.000
1
1+PL8+C255
0
POLYLINE
8
CUT
6
CONTINUOUS
62
7
66
1
10
0.000
20
0.000
30
0.000
70
1
0
VERTEX
8
CUT
10
0.000
20
205.780
30
0.000
42
0.00000000
0
VERTEX
8
CUT
10
0.000
20
416.960
30
0.000
42
0.00000000
0
VERTEX
8
CUT
10
178.040
20
626.550
30
0.000
42
0.00000000
0
VERTEX
8
CUT
10
487.610
20
626.540
30
0.000
42
0.00000000
0
VERTEX
8
CUT
10
665.650
20
416.950
30
0.000
42
0.00000000
0
VERTEX
8
CUT
10
665.650
20
205.780
30
0.000
42
0.00000000
0
VERTEX
8
CUT
10
490.850
20
0.000
30
0.000
42
0.00000000
0
VERTEX
8
CUT
10
174.800
20
0.000
30
0.000
42
0.00000000
0
SEQEND
0
POLYLINE
8
22
6
CONTINUOUS
62
7
66
1
10
0.000
20
0.000
30
0.000
70
1
0
VERTEX
8
22
10
72.570
20
193.640
30
0.000
42
1.00000000
0
VERTEX
8
22
10
72.570
20
170.640
30
0.000
42
1.00000000
0
SEQEND
0
LINE
8
22
6
CONTINUOUS
62
7
39
1.000
10
61.070
20
182.140
30
0.000
11
84.070
21
182.140
31
0.000
0
LINE
8
22
6
CONTINUOUS
62
7
39
1.000
10
72.570
20
170.640
30
0.000
11
72.570
21
193.640
31
0.000
0
POLYLINE
8
22
6
CONTINUOUS
62
7
66
1
10
0.000
20
0.000
30
0.000
70
1
0
VERTEX
8
22
10
72.570
20
452.100
30
0.000
42
1.00000000
0
VERTEX
8
22
10
72.570
20
429.100
30
0.000
42
1.00000000
0
SEQEND
0
LINE
8
22
6
CONTINUOUS
62
7
39
1.000
10
61.070
20
440.600
30
0.000
11
84.070
21
440.600
31
0.000
0
LINE
8
22
6
CONTINUOUS
62
7
39
1.000
10
72.570
20
429.100
30
0.000
11
72.570
21
452.100
31
0.000
0
POLYLINE
8
22
6
CONTINUOUS
62
7
66
1
10
0.000
20
0.000
30
0.000
70
1
0
VERTEX
8
22
10
163.200
20
86.940
30
0.000
42
1.00000000
0
VERTEX
8
22
10
163.200
20
63.940
30
0.000
42
1.00000000
0
SEQEND
0
LINE
8
22
6
CONTINUOUS
62
7
39
1.000
10
151.700
20
75.440
30
0.000
11
174.700
21
75.440
31
0.000
0
LINE
8
22
6
CONTINUOUS
62
7
39
1.000
10
163.200
20
63.940
30
0.000
11
163.200
21
86.940
31
0.000
0
POLYLINE
8
22
6
CONTINUOUS
62
7
66
1
10
0.000
20
0.000
30
0.000
70
1
0
VERTEX
8
22
10
163.210
20
558.800
30
0.000
42
1.00000000
0
VERTEX
8
22
10
163.210
20
535.800
30
0.000
42
1.00000000
0
SEQEND
0
LINE
8
22
6
CONTINUOUS
62
7
39
1.000
10
151.710
20
547.300
30
0.000
11
174.710
21
547.300
31
0.000
0
LINE
8
22
6
CONTINUOUS
62
7
39
1.000
10
163.210
20
535.800
30
0.000
11
163.210
21
558.800
31
0.000
0
POLYLINE
8
22
6
CONTINUOUS
62
7
66
1
10
0.000
20
0.000
30
0.000
70
1
0
VERTEX
8
22
10
502.440
20
86.940
30
0.000
42
1.00000000
0
VERTEX
8
22
10
502.440
20
63.940
30
0.000
42
1.00000000
0
SEQEND
0
LINE
8
22
6
CONTINUOUS
62
7
39
1.000
10
490.940
20
75.440
30
0.000
11
513.940
21
75.440
31
0.000
0
LINE
8
22
6
CONTINUOUS
62
7
39
1.000
10
502.440
20
63.940
30
0.000
11
502.440
21
86.940
31
0.000
0
POLYLINE
8
22
6
CONTINUOUS
62
7
66
1
10
0.000
20
0.000
30
0.000
70
1
0
VERTEX
8
22
10
502.440
20
558.800
30
0.000
42
1.00000000
0
VERTEX
8
22
10
502.440
20
535.800
30
0.000
42
1.00000000
0
SEQEND
0
LINE
8
22
6
CONTINUOUS
62
7
39
1.000
10
490.940
20
547.300
30
0.000
11
513.940
21
547.300
31
0.000
0
LINE
8
22
6
CONTINUOUS
62
7
39
1.000
10
502.440
20
535.800
30
0.000
11
502.440
21
558.800
31
0.000
0
POLYLINE
8
22
6
CONTINUOUS
62
7
66
1
10
0.000
20
0.000
30
0.000
70
1
0
VERTEX
8
22
10
593.080
20
193.630
30
0.000
42
1.00000000
0
VERTEX
8
22
10
593.080
20
170.630
30
0.000
42
1.00000000
0
SEQEND
0
LINE
8
22
6
CONTINUOUS
62
7
39
1.000
10
581.580
20
182.130
30
0.000
11
604.580
21
182.130
31
0.000
0
LINE
8
22
6
CONTINUOUS
62
7
39
1.000
10
593.080
20
170.630
30
0.000
11
593.080
21
193.630
31
0.000
0
POLYLINE
8
22
6
CONTINUOUS
62
7
66
1
10
0.000
20
0.000
30
0.000
70
1
0
VERTEX
8
22
10
593.080
20
452.100
30
0.000
42
1.00000000
0
VERTEX
8
22
10
593.080
20
429.100
30
0.000
42
1.00000000
0
SEQEND
0
LINE
8
22
6
CONTINUOUS
62
7
39
1.000
10
581.580
20
440.600
30
0.000
11
604.580
21
440.600
31
0.000
0
LINE
8
22
6
CONTINUOUS
62
7
39
1.000
10
593.080
20
429.100
30
0.000
11
593.080
21
452.100
31
0.000
0
ENDSEC
0
EOF
