0
SECTION
2
HEADER
9
$PDMODE
70
33
9
$PDSIZE
40
1.000
9
$EXTMIN
10
-69.489
20
-53.070
30
-1.000
9
$EXTMAX
10
764.379
20
583.770
30
1.000
9
$LIMMIN
10
-69.489
20
-53.070
9
$LIMMAX
10
764.379
20
583.770
0
ENDSEC
0
SECTION
2
TABLES
0
TABLE
2
LAYER
70
7
0
LAYER
2
SCRIBE
70
0
62
3
6
CONTINUOUS
0
LAYER
2
TEXT
70
0
62
7
6
CONTINUOUS
0
LAYER
2
CUT
70
0
62
7
6
CONTINUOUS
0
LAYER
2
22
70
0
62
7
6
CONTINUOUS
0
ENDTAB
0
TABLE
2
VPORT
70
4
0
VPORT
2
*ACTIVE
70
0
10
0.000000
20
0.000000
11
1.000000
21
1.000000
12
347.445000
22
265.350000
13
0.000000
23
0.000000
14
1.000000
24
1.000000
15
1.000000
25
1.000000
16
0.000000
26
0.000000
36
1.000000
17
0.000000
27
0.000000
37
0.000000
40
694.890000
41
1.500000
42
50.000000
43
0.000000
44
0.000000
50
0.000000
51
0.000000
71
0
72
100
73
1
74
1
75
0
76
0
77
0
78
0
0
ENDTAB
0
ENDSEC
0
SECTION
2
ENTITIES
0
TEXT
8
SCRIBE
62
3
10
30.000
20
30.000
30
0.000
40
10.000
1
237
0
TEXT
8
TEXT
62
7
10
30.000
20
15.000
30
0.000
40
10.000
1
1+PL8+C255
0
POLYLINE
8
CUT
6
CONTINUOUS
62
7
66
1
10
0.000
20
0.000
30
0.000
70
1
0
VERTEX
8
CUT
10
0.000
20
238.680
30
0.000
42
0.00000000
0
VERTEX
8
CUT
10
0.000
20
240.610
30
0.000
42
0.00000000
0
VERTEX
8
CUT
10
153.420
20
530.700
30
0.000
42
0.00000000
0
VERTEX
8
CUT
10
541.480
20
530.700
30
0.000
42
0.00000000
0
VERTEX
8
CUT
10
694.890
20
240.610
30
0.000
42
0.00000000
0
VERTEX
8
CUT
10
694.890
20
238.680
30
0.000
42
0.00000000
0
VERTEX
8
CUT
10
568.670
20
0.000
30
0.000
42
0.00000000
0
VERTEX
8
CUT
10
126.230
20
0.000
30
0.000
42
0.00000000
0
SEQEND
0
POLYLINE
8
22
6
CONTINUOUS
62
7
66
1
10
0.000
20
0.000
30
0.000
70
1
0
VERTEX
8
22
10
65.750
20
211.420
30
0.000
42
1.00000000
0
VERTEX
8
22
10
65.750
20
188.420
30
0.000
42
1.00000000
0
SEQEND
0
LINE
8
22
6
CONTINUOUS
62
7
39
1.000
10
54.250
20
199.920
30
0.000
11
77.250
21
199.920
31
0.000
0
LINE
8
22
6
CONTINUOUS
62
7
39
1.000
10
65.750
20
188.420
30
0.000
11
65.750
21
211.420
31
0.000
0
POLYLINE
8
22
6
CONTINUOUS
62
7
66
1
10
0.000
20
0.000
30
0.000
70
1
0
VERTEX
8
22
10
90.600
20
337.860
30
0.000
42
1.00000000
0
VERTEX
8
22
10
90.600
20
314.860
30
0.000
42
1.00000000
0
SEQEND
0
LINE
8
22
6
CONTINUOUS
62
7
39
1.000
10
79.100
20
326.360
30
0.000
11
102.100
21
326.360
31
0.000
0
LINE
8
22
6
CONTINUOUS
62
7
39
1.000
10
90.600
20
314.860
30
0.000
11
90.600
21
337.860
31
0.000
0
POLYLINE
8
22
6
CONTINUOUS
62
7
66
1
10
0.000
20
0.000
30
0.000
70
1
0
VERTEX
8
22
10
131.200
20
87.660
30
0.000
42
1.00000000
0
VERTEX
8
22
10
131.200
20
64.660
30
0.000
42
1.00000000
0
SEQEND
0
LINE
8
22
6
CONTINUOUS
62
7
39
1.000
10
119.700
20
76.160
30
0.000
11
142.700
21
76.160
31
0.000
0
LINE
8
22
6
CONTINUOUS
62
7
39
1.000
10
131.200
20
64.660
30
0.000
11
131.200
21
87.660
31
0.000
0
POLYLINE
8
22
6
CONTINUOUS
62
7
66
1
10
0.000
20
0.000
30
0.000
70
1
0
VERTEX
8
22
10
156.050
20
461.620
30
0.000
42
1.00000000
0
VERTEX
8
22
10
156.050
20
438.620
30
0.000
42
1.00000000
0
SEQEND
0
LINE
8
22
6
CONTINUOUS
62
7
39
1.000
10
144.550
20
450.120
30
0.000
11
167.550
21
450.120
31
0.000
0
LINE
8
22
6
CONTINUOUS
62
7
39
1.000
10
156.050
20
438.620
30
0.000
11
156.050
21
461.620
31
0.000
0
POLYLINE
8
22
6
CONTINUOUS
62
7
66
1
10
0.000
20
0.000
30
0.000
70
1
0
VERTEX
8
22
10
538.850
20
461.620
30
0.000
42
1.00000000
0
VERTEX
8
22
10
538.850
20
438.620
30
0.000
42
1.00000000
0
SEQEND
0
LINE
8
22
6
CONTINUOUS
62
7
39
1.000
10
527.350
20
450.120
30
0.000
11
550.350
21
450.120
31
0.000
0
LINE
8
22
6
CONTINUOUS
62
7
39
1.000
10
538.850
20
438.620
30
0.000
11
538.850
21
461.620
31
0.000
0
POLYLINE
8
22
6
CONTINUOUS
62
7
66
1
10
0.000
20
0.000
30
0.000
70
1
0
VERTEX
8
22
10
563.700
20
87.660
30
0.000
42
1.00000000
0
VERTEX
8
22
10
563.700
20
64.660
30
0.000
42
1.00000000
0
SEQEND
0
LINE
8
22
6
CONTINUOUS
62
7
39
1.000
10
552.200
20
76.160
30
0.000
11
575.200
21
76.160
31
0.000
0
LINE
8
22
6
CONTINUOUS
62
7
39
1.000
10
563.700
20
64.660
30
0.000
11
563.700
21
87.660
31
0.000
0
POLYLINE
8
22
6
CONTINUOUS
62
7
66
1
10
0.000
20
0.000
30
0.000
70
1
0
VERTEX
8
22
10
604.300
20
337.860
30
0.000
42
1.00000000
0
VERTEX
8
22
10
604.300
20
314.860
30
0.000
42
1.00000000
0
SEQEND
0
LINE
8
22
6
CONTINUOUS
62
7
39
1.000
10
592.800
20
326.360
30
0.000
11
615.800
21
326.360
31
0.000
0
LINE
8
22
6
CONTINUOUS
62
7
39
1.000
10
604.300
20
314.860
30
0.000
11
604.300
21
337.860
31
0.000
0
POLYLINE
8
22
6
CONTINUOUS
62
7
66
1
10
0.000
20
0.000
30
0.000
70
1
0
VERTEX
8
22
10
629.150
20
211.420
30
0.000
42
1.00000000
0
VERTEX
8
22
10
629.150
20
188.420
30
0.000
42
1.00000000
0
SEQEND
0
LINE
8
22
6
CONTINUOUS
62
7
39
1.000
10
617.650
20
199.920
30
0.000
11
640.650
21
199.920
31
0.000
0
LINE
8
22
6
CONTINUOUS
62
7
39
1.000
10
629.150
20
188.420
30
0.000
11
629.150
21
211.420
31
0.000
0
ENDSEC
0
EOF
